<svg width="1095" height="313" viewBox="0 0 1095 313" fill="none" xmlns="http://www.w3.org/2000/svg">
<path d="M490.82 123.8C477.617 116.285 462.825 112.546 446.444 112.546C430.063 112.546 415.271 116.285 402.068 123.8C388.864 131.315 378.379 141.723 370.648 155.024C362.917 168.325 359.033 183.742 359.033 201.242C359.033 214.366 361.222 226.326 365.564 237.087H418.343C416.048 234.441 414.036 231.442 412.27 228.02C408.634 220.858 406.798 211.826 406.798 200.889C406.798 190.446 408.67 181.52 412.412 174.111C416.154 166.737 421.061 161.268 427.098 157.74C433.135 154.212 439.772 152.448 447.079 152.448C453.681 152.448 459.93 154.212 465.861 157.74C471.792 161.268 476.558 166.737 480.194 174.111C483.83 181.52 485.666 190.551 485.666 201.242C485.666 211.932 483.83 220.858 480.194 228.02C478.464 231.442 476.452 234.441 474.157 237.087H526.9C531.242 226.326 533.431 214.366 533.431 201.242C533.431 183.495 529.618 168.042 521.993 154.847C514.438 141.652 504.024 131.315 490.82 123.8Z" fill="#DBFC4C"/>
<path d="M402.069 90.4953C415.272 98.0101 430.064 101.75 446.445 101.75C462.614 101.75 477.265 98.0101 490.468 90.4953C503.672 82.9805 514.121 72.5726 521.888 59.2718C523.724 56.1318 525.312 52.8507 526.689 49.499H473.734C471.404 52.1451 468.792 54.4031 465.897 56.2024C459.966 59.9421 453.364 61.8473 446.092 61.8473C439.278 61.8473 432.818 59.9774 426.816 56.2024C423.886 54.3678 421.239 52.1098 418.838 49.499H365.812C367.225 52.886 368.813 56.1318 370.614 59.2718C378.416 72.5726 388.865 82.9805 402.069 90.4953Z" fill="#DBFC4C"/>
<path d="M131.01 78.0764C118.407 70.8439 103.862 67.21 87.3402 67.21C69.7239 67.21 54.4376 71.0556 41.4813 78.7468C28.525 86.438 18.393 96.8458 11.0146 110.006C3.67154 123.165 0 138.442 0 155.835C0 172.558 3.74214 187.341 11.2264 200.148C18.7107 212.955 28.9486 223.01 42.0108 230.242C55.073 237.475 70.1828 241.109 87.3402 241.109C100.508 241.109 112.476 238.639 123.314 233.77C134.117 228.866 143.26 222.057 150.745 213.378C158.229 204.699 163.525 195.103 166.631 184.624H119.466C116.783 190.199 112.723 194.821 107.251 198.49C101.779 202.159 95.0363 203.994 87.0224 203.994C78.5497 203.994 71.2419 202.088 65.0991 198.313C58.9564 194.538 54.1551 189.458 50.6954 183.107C47.9065 178.027 46.3178 172.135 45.753 165.537H170.656C171.115 162.433 171.362 159.504 171.503 156.858C171.609 154.177 171.68 151.743 171.68 149.52C171.68 133.467 168.043 119.355 160.806 107.218C153.534 95.0465 143.614 85.3443 131.01 78.0764ZM46.7768 137.454C47.73 132.726 49.1774 128.457 51.1897 124.753C54.9671 117.838 60.0508 112.652 66.4054 109.194C72.7599 105.737 79.7147 104.008 87.3049 104.008C97.5781 104.008 106.157 107.077 113.076 113.216C119.996 119.355 123.879 127.434 124.797 137.454H46.7768Z" fill="#DBFC4C"/>
<path d="M343.253 71.2319H288.709L231.836 137.595V0H185.659V237.087H231.836V154.706L296.723 237.087H353.95L276.035 147.332L343.253 71.2319Z" fill="#DBFC4C"/>
<path d="M628.433 67.21C614.806 67.21 602.944 69.9266 592.812 75.3951C582.645 80.8636 574.737 88.1667 569.053 97.3045C563.369 106.442 560.51 116.603 560.51 127.752C560.51 138.9 563.228 149.061 568.7 158.199C571.665 163.138 575.337 167.584 579.679 171.465L550.483 201.983V209.674C553.378 212.567 557.226 215.424 562.028 218.212C564.464 219.623 567.111 220.964 570.006 222.269C563.616 227.279 558.568 232.606 555.002 238.286C550.872 244.849 548.824 252.046 548.824 259.843C548.824 270.992 552.107 280.341 558.709 287.927C565.275 295.512 574.56 301.263 586.493 305.144C598.425 309.024 612.299 311 628.15 311C645.555 311 659.923 308.319 671.326 302.991C682.729 297.664 691.061 290.678 696.427 282.105C701.793 273.532 704.441 264.535 704.441 255.186C704.441 244.919 702.217 236.452 697.733 229.784C693.285 223.08 686.401 217.577 677.151 213.237C667.902 208.898 655.793 206.181 640.86 205.052C632.387 204.382 625.291 203.605 619.607 202.723C613.923 201.841 609.299 200.924 605.733 200.042C602.167 199.16 599.202 198.207 596.872 197.184C596.201 196.902 595.495 196.585 594.824 196.267L605.027 185.542C612.123 187.588 619.925 188.646 628.468 188.646C642.731 188.646 654.946 185.859 665.113 180.285C675.245 174.71 683.012 167.372 688.378 158.199C693.744 149.061 696.427 138.9 696.427 127.752C696.427 117.45 694.097 108.03 689.543 99.4213L717.856 96.9869V71.232H655.334C647.32 68.5859 638.388 67.21 628.433 67.21ZM632.14 235.746C644.39 236.628 652.51 238.816 656.393 242.273C660.312 245.731 662.253 250.352 662.253 256.139C662.253 260.584 660.983 264.394 658.405 267.499C655.828 270.604 651.98 273.144 646.861 275.014C641.742 276.919 635.6 277.871 628.468 277.871C621.09 277.871 614.594 276.989 608.91 275.19C603.226 273.391 598.708 270.886 595.354 267.675C592 264.43 590.341 260.478 590.341 255.821C590.341 250.247 592.565 245.06 597.048 240.262C599.626 237.51 603.085 235.041 607.428 232.853C614.771 234.053 622.996 235.041 632.14 235.746ZM649.368 147.297C644.108 151.884 637.153 154.142 628.468 154.142C620.207 154.142 613.288 151.849 607.71 147.297C602.132 142.746 599.343 136.325 599.343 128.069C599.343 119.143 602.061 112.51 607.533 108.171C613.005 103.831 619.96 101.644 628.433 101.644C637.118 101.644 644.108 103.831 649.332 108.171C654.557 112.51 657.205 119.143 657.205 128.069C657.24 136.325 654.593 142.746 649.368 147.297Z" fill="#DBFC4C"/>
<path d="M792.381 82.416C786.591 88.0962 781.331 95.7521 776.636 105.313H775.965L771.27 71.1967H731.801V237.087H777.977V162.539C777.977 153.86 779.001 146.556 780.978 140.629C782.99 134.737 786.062 129.939 790.192 126.235C794.323 122.565 799.265 119.884 805.09 118.226C810.88 116.568 817.482 115.721 824.825 115.721H837.534V67.21C828.179 67.21 819.741 68.3389 812.257 70.5616C804.808 72.7843 798.171 76.7358 792.381 82.416Z" fill="#DBFC4C"/>
<path d="M895.501 11.4309C890.135 6.63274 883.322 4.23364 875.096 4.23364C866.623 4.23364 859.739 6.63274 854.514 11.4309C849.254 16.2291 846.642 22.4032 846.642 29.9886C846.642 37.3623 849.254 43.4659 854.514 48.3699C859.739 53.2739 866.623 55.7436 875.096 55.7436C883.357 55.7436 890.17 53.3092 895.501 48.3699C900.867 43.4659 903.515 37.327 903.515 29.9886C903.55 22.4032 900.867 16.2291 895.501 11.4309Z" fill="#DBFC4C"/>
<path d="M897.867 71.2319H852.008V237.087H897.867V71.2319Z" fill="#DBFC4C"/>
<path d="M1049.18 0V92.6473C1043.81 84.8503 1036.36 78.6761 1026.76 74.0896C1017.16 69.5384 1006.25 67.2451 993.962 67.2451C978.111 67.2451 964.166 71.0555 952.128 78.6056C940.09 86.1909 930.664 96.4929 923.85 109.547C917.037 122.601 913.647 137.454 913.647 154.177C913.647 170.9 917.037 185.824 923.85 198.984C930.664 212.143 940.019 222.445 951.951 229.925C963.884 237.404 977.652 241.144 993.292 241.144C1002.44 241.144 1010.7 239.874 1018.04 237.298C1025.38 234.723 1031.81 231.16 1037.28 226.608C1042.75 222.057 1047.38 216.73 1051.15 210.732H1051.82L1055.5 237.157H1094.96V0H1049.18ZM1044.66 178.909C1040.99 186.282 1035.8 191.998 1029.09 196.126C1022.38 200.254 1014.47 202.3 1005.33 202.3C996.645 202.3 988.879 200.254 982.065 196.126C975.252 191.998 969.956 186.318 966.179 179.085C962.366 171.853 960.495 163.526 960.495 154.177C960.495 144.828 962.401 136.466 966.179 129.092C969.956 121.754 975.252 116.038 982.065 112.052C988.879 108.03 996.61 106.019 1005.33 106.019C1014.47 106.019 1022.38 108.03 1029.09 112.052C1035.8 116.074 1040.95 121.683 1044.66 128.951C1048.33 136.184 1050.17 144.616 1050.17 154.212C1050.17 163.315 1048.33 171.535 1044.66 178.909Z" fill="#DBFC4C"/>
<path d="M529.333 302.577C529.333 303.806 529.124 304.908 528.707 305.882C528.289 306.856 527.721 307.726 527.002 308.492C526.283 309.234 525.448 309.872 524.497 310.405C523.546 310.939 522.525 311.38 521.435 311.727C520.368 312.075 519.266 312.331 518.13 312.493C516.993 312.655 515.88 312.736 514.789 312.736C512.423 312.736 510.243 312.632 508.248 312.423C506.276 312.215 504.34 311.878 502.438 311.414V305.847C504.479 306.427 506.508 306.868 508.526 307.169C510.545 307.471 512.551 307.622 514.546 307.622C517.445 307.622 519.591 307.227 520.983 306.439C522.374 305.65 523.07 304.525 523.07 303.064C523.07 302.437 522.954 301.881 522.722 301.394C522.514 300.883 522.119 300.408 521.539 299.967C520.959 299.503 520.055 299.028 518.825 298.541C517.619 298.053 515.961 297.497 513.85 296.87C512.273 296.407 510.811 295.885 509.466 295.305C508.144 294.702 506.996 293.994 506.021 293.182C505.047 292.37 504.282 291.419 503.725 290.329C503.168 289.239 502.89 287.952 502.89 286.467C502.89 285.493 503.11 284.426 503.551 283.266C504.015 282.106 504.792 281.028 505.882 280.03C506.972 279.033 508.445 278.209 510.301 277.56C512.157 276.887 514.476 276.551 517.26 276.551C518.628 276.551 520.148 276.632 521.818 276.794C523.488 276.934 525.228 277.189 527.037 277.56V282.953C525.135 282.489 523.326 282.153 521.609 281.944C519.916 281.712 518.443 281.596 517.19 281.596C515.682 281.596 514.407 281.712 513.363 281.944C512.342 282.176 511.507 282.501 510.858 282.918C510.231 283.312 509.779 283.788 509.501 284.345C509.222 284.878 509.083 285.458 509.083 286.084C509.083 286.711 509.199 287.279 509.431 287.789C509.686 288.3 510.139 288.798 510.788 289.285C511.461 289.749 512.389 290.225 513.572 290.712C514.755 291.176 516.297 291.686 518.199 292.243C520.264 292.846 522.003 293.484 523.418 294.157C524.833 294.806 525.981 295.537 526.863 296.349C527.744 297.16 528.371 298.077 528.742 299.097C529.136 300.118 529.333 301.278 529.333 302.577Z" fill="#DBFC4C"/>
<path d="M466.058 277.177H471.451L471.694 282.814C472.715 281.608 473.701 280.61 474.652 279.821C475.603 279.01 476.531 278.36 477.435 277.873C478.363 277.386 479.303 277.049 480.254 276.864C481.205 276.655 482.19 276.551 483.211 276.551C486.806 276.551 489.52 277.618 491.353 279.752C493.208 281.863 494.136 285.052 494.136 289.32V312.11H488.082V289.807C488.082 287.07 487.572 285.052 486.551 283.753C485.531 282.431 484.011 281.77 481.993 281.77C481.251 281.77 480.52 281.886 479.801 282.118C479.105 282.327 478.375 282.709 477.609 283.266C476.844 283.8 476.009 284.53 475.104 285.458C474.223 286.386 473.225 287.546 472.112 288.937V312.11H466.058V277.177Z" fill="#DBFC4C"/>
<path d="M460.852 294.365C460.852 297.079 460.469 299.573 459.704 301.846C458.938 304.096 457.837 306.033 456.398 307.657C454.96 309.257 453.209 310.51 451.145 311.414C449.08 312.296 446.737 312.736 444.116 312.736C441.611 312.736 439.361 312.354 437.366 311.588C435.394 310.8 433.713 309.651 432.321 308.144C430.952 306.636 429.897 304.769 429.155 302.542C428.436 300.315 428.076 297.752 428.076 294.852C428.076 292.138 428.459 289.668 429.224 287.441C429.99 285.191 431.092 283.266 432.53 281.665C433.968 280.042 435.719 278.789 437.784 277.908C439.848 277.003 442.191 276.551 444.812 276.551C447.317 276.551 449.556 276.945 451.527 277.734C453.522 278.499 455.204 279.636 456.572 281.144C457.964 282.628 459.02 284.484 459.739 286.711C460.481 288.937 460.852 291.489 460.852 294.365ZM454.659 294.644C454.659 292.486 454.415 290.608 453.928 289.007C453.464 287.383 452.791 286.038 451.91 284.971C451.029 283.881 449.95 283.069 448.674 282.535C447.422 281.979 446.018 281.7 444.464 281.7C442.655 281.7 441.101 282.06 439.802 282.779C438.526 283.475 437.471 284.414 436.635 285.597C435.824 286.78 435.221 288.16 434.826 289.738C434.455 291.292 434.27 292.927 434.27 294.644C434.27 296.801 434.501 298.691 434.965 300.315C435.452 301.939 436.137 303.296 437.018 304.386C437.9 305.453 438.967 306.265 440.219 306.822C441.472 307.355 442.887 307.622 444.464 307.622C446.273 307.622 447.816 307.274 449.092 306.578C450.391 305.859 451.446 304.908 452.258 303.725C453.093 302.542 453.696 301.173 454.067 299.619C454.462 298.042 454.659 296.383 454.659 294.644Z" fill="#DBFC4C"/>
<path d="M406.727 282.187H396.393V277.177H412.851V307.065H423.254V312.11H395.245V307.065H406.727V282.187ZM408.85 262.529C409.522 262.529 410.149 262.656 410.728 262.912C411.308 263.144 411.807 263.48 412.225 263.921C412.665 264.361 413.002 264.872 413.234 265.452C413.489 266.008 413.616 266.623 413.616 267.296C413.616 267.945 413.489 268.56 413.234 269.14C413.002 269.72 412.665 270.23 412.225 270.671C411.807 271.111 411.308 271.459 410.728 271.714C410.149 271.946 409.522 272.062 408.85 272.062C408.177 272.062 407.551 271.946 406.971 271.714C406.391 271.459 405.88 271.111 405.44 270.671C405.022 270.23 404.686 269.72 404.431 269.14C404.199 268.56 404.083 267.945 404.083 267.296C404.083 266.623 404.199 266.008 404.431 265.452C404.686 264.872 405.022 264.361 405.44 263.921C405.88 263.48 406.391 263.144 406.971 262.912C407.551 262.656 408.177 262.529 408.85 262.529Z" fill="#DBFC4C"/>
<path d="M387.36 311.623C385.992 311.971 384.577 312.215 383.115 312.354C381.654 312.516 380.169 312.597 378.662 312.597C374.278 312.597 371.007 311.612 368.85 309.64C366.693 307.645 365.614 304.595 365.614 300.489V282.257H355.837V277.177H365.614V267.574L371.668 266.008V277.177H387.36V282.257H371.668V300.002C371.668 302.507 372.329 304.386 373.651 305.639C374.997 306.868 376.968 307.483 379.566 307.483C380.68 307.483 381.898 307.402 383.22 307.239C384.542 307.054 385.922 306.775 387.36 306.404V311.623Z" fill="#DBFC4C"/>
<path d="M351.675 312.11H346.248L346.039 306.474C344.995 307.68 343.998 308.689 343.046 309.501C342.119 310.289 341.191 310.927 340.263 311.414C339.335 311.902 338.396 312.238 337.445 312.424C336.517 312.632 335.531 312.737 334.487 312.737C330.892 312.737 328.178 311.681 326.345 309.57C324.513 307.46 323.597 304.27 323.597 300.002V277.177H329.651V299.515C329.651 304.873 331.669 307.552 335.705 307.552C336.447 307.552 337.166 307.448 337.862 307.239C338.581 307.007 339.324 306.625 340.089 306.091C340.878 305.534 341.713 304.792 342.594 303.864C343.499 302.936 344.508 301.765 345.621 300.35V277.177H351.675V312.11Z" fill="#DBFC4C"/>
<path d="M299.881 267.922H289.548V262.947H306.005V307.065H316.409V312.11H288.399V307.065H299.881V267.922Z" fill="#DBFC4C"/>
<path d="M282.777 294.365C282.777 297.079 282.394 299.573 281.629 301.846C280.863 304.096 279.761 306.033 278.323 307.657C276.885 309.257 275.134 310.51 273.069 311.414C271.005 312.296 268.662 312.736 266.041 312.736C263.536 312.736 261.286 312.354 259.291 311.588C257.319 310.8 255.638 309.651 254.246 308.144C252.877 306.636 251.822 304.769 251.08 302.542C250.361 300.315 250.001 297.752 250.001 294.852C250.001 292.138 250.384 289.668 251.149 287.441C251.915 285.191 253.016 283.266 254.455 281.665C255.893 280.042 257.644 278.789 259.708 277.908C261.773 277.003 264.116 276.551 266.737 276.551C269.242 276.551 271.48 276.945 273.452 277.734C275.447 278.499 277.129 279.636 278.497 281.144C279.889 282.628 280.944 284.484 281.663 286.711C282.406 288.937 282.777 291.489 282.777 294.365ZM276.584 294.644C276.584 292.486 276.34 290.608 275.853 289.007C275.389 287.383 274.716 286.038 273.835 284.971C272.953 283.881 271.875 283.069 270.599 282.535C269.346 281.979 267.943 281.7 266.389 281.7C264.58 281.7 263.026 282.06 261.727 282.779C260.451 283.475 259.395 284.414 258.56 285.597C257.748 286.78 257.145 288.16 256.751 289.738C256.38 291.292 256.194 292.927 256.194 294.644C256.194 296.801 256.426 298.691 256.89 300.315C257.377 301.939 258.062 303.296 258.943 304.386C259.824 305.453 260.891 306.265 262.144 306.822C263.397 307.355 264.812 307.622 266.389 307.622C268.198 307.622 269.741 307.274 271.017 306.578C272.315 305.859 273.371 304.908 274.183 303.725C275.018 302.542 275.621 301.173 275.992 299.619C276.386 298.042 276.584 296.383 276.584 294.644Z" fill="#DBFC4C"/>
<path d="M244.413 302.577C244.413 303.806 244.205 304.908 243.787 305.882C243.369 306.856 242.801 307.726 242.082 308.492C241.363 309.234 240.528 309.872 239.577 310.405C238.626 310.939 237.605 311.38 236.515 311.727C235.448 312.075 234.346 312.331 233.21 312.493C232.073 312.655 230.96 312.736 229.869 312.736C227.503 312.736 225.323 312.632 223.328 312.423C221.357 312.215 219.42 311.878 217.518 311.414V305.847C219.559 306.427 221.588 306.868 223.607 307.169C225.625 307.471 227.631 307.622 229.626 307.622C232.525 307.622 234.671 307.227 236.063 306.439C237.455 305.65 238.15 304.525 238.15 303.064C238.15 302.437 238.034 301.881 237.802 301.394C237.594 300.883 237.199 300.408 236.619 299.967C236.04 299.503 235.135 299.028 233.906 298.541C232.699 298.053 231.041 297.497 228.93 296.87C227.353 296.407 225.891 295.885 224.546 295.305C223.224 294.702 222.076 293.994 221.101 293.182C220.127 292.37 219.362 291.419 218.805 290.329C218.248 289.239 217.97 287.952 217.97 286.467C217.97 285.493 218.19 284.426 218.631 283.266C219.095 282.106 219.872 281.028 220.962 280.03C222.052 279.033 223.525 278.209 225.381 277.56C227.237 276.887 229.556 276.551 232.34 276.551C233.708 276.551 235.228 276.632 236.898 276.794C238.568 276.934 240.308 277.189 242.117 277.56V282.953C240.215 282.489 238.406 282.153 236.689 281.944C234.996 281.712 233.523 281.596 232.27 281.596C230.762 281.596 229.487 281.712 228.443 281.944C227.422 282.176 226.587 282.501 225.938 282.918C225.311 283.312 224.859 283.788 224.581 284.345C224.302 284.878 224.163 285.458 224.163 286.084C224.163 286.711 224.279 287.279 224.511 287.789C224.766 288.3 225.219 288.798 225.868 289.285C226.541 289.749 227.469 290.225 228.652 290.712C229.835 291.176 231.377 291.686 233.279 292.243C235.344 292.846 237.083 293.484 238.498 294.157C239.913 294.806 241.061 295.537 241.943 296.349C242.824 297.16 243.451 298.077 243.822 299.097C244.216 300.118 244.413 301.278 244.413 302.577Z" fill="#DBFC4C"/>
<path d="M156.924 277.177H162.456L162.63 283.614C164.694 281.132 166.724 279.334 168.719 278.221C170.737 277.107 172.767 276.551 174.808 276.551C178.426 276.551 181.164 277.722 183.019 280.065C184.898 282.408 185.768 285.887 185.629 290.503H179.505C179.575 287.441 179.122 285.226 178.148 283.858C177.197 282.466 175.794 281.77 173.938 281.77C173.126 281.77 172.303 281.921 171.468 282.222C170.656 282.501 169.809 282.964 168.928 283.614C168.069 284.24 167.153 285.052 166.179 286.05C165.205 287.047 164.161 288.253 163.048 289.668V312.11H156.924V277.177Z" fill="#DBFC4C"/>
<path d="M142.325 312.11L142.186 307.413C140.284 309.292 138.347 310.649 136.375 311.484C134.427 312.319 132.374 312.736 130.217 312.736C128.222 312.736 126.517 312.481 125.102 311.971C123.687 311.461 122.516 310.765 121.588 309.883C120.683 308.979 120.01 307.923 119.57 306.717C119.152 305.511 118.943 304.2 118.943 302.785C118.943 299.283 120.242 296.546 122.84 294.574C125.461 292.579 129.324 291.582 134.427 291.582H141.664V288.52C141.664 286.455 141.003 284.809 139.681 283.579C138.358 282.327 136.34 281.7 133.626 281.7C131.655 281.7 129.706 281.921 127.781 282.361C125.879 282.802 123.907 283.428 121.866 284.24V278.778C122.632 278.499 123.478 278.232 124.406 277.977C125.357 277.699 126.354 277.455 127.398 277.247C128.442 277.038 129.532 276.876 130.669 276.76C131.806 276.62 132.954 276.551 134.114 276.551C136.224 276.551 138.126 276.783 139.82 277.247C141.513 277.711 142.94 278.418 144.099 279.369C145.282 280.32 146.187 281.515 146.813 282.953C147.44 284.391 147.753 286.084 147.753 288.033V312.11H142.325ZM141.664 296.209H133.974C132.467 296.209 131.168 296.36 130.077 296.662C128.987 296.963 128.094 297.392 127.398 297.949C126.702 298.506 126.181 299.178 125.833 299.967C125.508 300.733 125.345 301.602 125.345 302.577C125.345 303.249 125.45 303.899 125.659 304.525C125.867 305.128 126.204 305.673 126.668 306.16C127.132 306.624 127.735 306.995 128.477 307.274C129.219 307.552 130.124 307.691 131.191 307.691C132.583 307.691 134.172 307.274 135.958 306.439C137.767 305.581 139.669 304.235 141.664 302.403V296.209Z" fill="#DBFC4C"/>
<path d="M96.1666 267.922H85.8328V262.947H102.29V307.065H112.694V312.11H84.6846V307.065H96.1666V267.922Z" fill="#DBFC4C"/>
<path d="M79.062 294.365C79.062 297.079 78.6793 299.573 77.9138 301.846C77.1484 304.096 76.0466 306.033 74.6084 307.657C73.1703 309.257 71.419 310.51 69.3545 311.414C67.2901 312.296 64.9473 312.736 62.3261 312.736C59.821 312.736 57.571 312.354 55.5761 311.588C53.6045 310.8 51.9228 309.651 50.531 308.144C49.1624 306.636 48.107 304.769 47.3647 302.542C46.6457 300.315 46.2861 297.752 46.2861 294.852C46.2861 292.138 46.6689 289.668 47.4343 287.441C48.1998 285.191 49.3016 283.266 50.7398 281.665C52.1779 280.042 53.9292 278.789 55.9936 277.908C58.0581 277.003 60.4009 276.551 63.022 276.551C65.5272 276.551 67.7656 276.945 69.7373 277.734C71.7321 278.499 73.4138 279.636 74.7824 281.144C76.1741 282.628 77.2296 284.484 77.9486 286.711C78.6909 288.937 79.062 291.489 79.062 294.365ZM72.8687 294.644C72.8687 292.486 72.6252 290.608 72.138 289.007C71.6741 287.383 71.0014 286.038 70.12 284.971C69.2385 283.881 68.1599 283.069 66.8842 282.535C65.6316 281.979 64.2282 281.7 62.6741 281.7C60.8648 281.7 59.3107 282.06 58.0117 282.779C56.7359 283.475 55.6805 284.414 54.8454 285.597C54.0336 286.78 53.4305 288.16 53.0362 289.738C52.665 291.292 52.4795 292.927 52.4795 294.644C52.4795 296.801 52.7114 298.691 53.1753 300.315C53.6625 301.939 54.3467 303.296 55.2282 304.386C56.1096 305.453 57.1766 306.265 58.4292 306.822C59.6818 307.355 61.0968 307.622 62.6741 307.622C64.4834 307.622 66.0259 307.274 67.3017 306.578C68.6007 305.859 69.6561 304.908 70.4679 303.725C71.303 302.542 71.9061 301.173 72.2772 299.619C72.6715 298.042 72.8687 296.383 72.8687 294.644Z" fill="#DBFC4C"/>
<path d="M40.6985 302.577C40.6985 303.806 40.4897 304.908 40.0722 305.882C39.6546 306.856 39.0863 307.726 38.3673 308.492C37.6482 309.234 36.8131 309.872 35.8621 310.405C34.9111 310.939 33.8904 311.38 32.8002 311.727C31.7332 312.075 30.6314 312.331 29.4948 312.493C28.3582 312.655 27.2448 312.736 26.1546 312.736C23.7886 312.736 21.6082 312.632 19.6133 312.423C17.6417 312.215 15.7048 311.878 13.8027 311.414V305.847C15.844 306.427 17.8736 306.868 19.8917 307.169C21.9097 307.471 23.9162 307.622 25.911 307.622C28.8105 307.622 30.9562 307.227 32.3479 306.439C33.7397 305.65 34.4356 304.525 34.4356 303.064C34.4356 302.437 34.3196 301.881 34.0876 301.394C33.8788 300.883 33.4845 300.408 32.9046 299.967C32.3247 299.503 31.4201 299.028 30.1907 298.541C28.9845 298.053 27.326 297.497 25.2152 296.87C23.6378 296.407 22.1765 295.885 20.8311 295.305C19.5089 294.702 18.3607 293.994 17.3865 293.182C16.4123 292.37 15.6468 291.419 15.0901 290.329C14.5334 289.239 14.2551 287.952 14.2551 286.467C14.2551 285.493 14.4754 284.426 14.9161 283.266C15.3801 282.106 16.1571 281.028 17.2473 280.03C18.3375 279.033 19.8105 278.209 21.6662 277.56C23.5218 276.887 25.8414 276.551 28.625 276.551C29.9935 276.551 31.5129 276.632 33.183 276.794C34.8531 276.934 36.5928 277.189 38.4021 277.56V282.953C36.5 282.489 34.6907 282.153 32.9742 281.944C31.2809 281.712 29.808 281.596 28.5554 281.596C27.0476 281.596 25.7719 281.712 24.728 281.944C23.7074 282.176 22.8724 282.501 22.2229 282.918C21.5966 283.312 21.1443 283.788 20.8659 284.345C20.5876 284.878 20.4484 285.458 20.4484 286.084C20.4484 286.711 20.5644 287.279 20.7963 287.789C21.0515 288.3 21.5038 288.798 22.1533 289.285C22.826 289.749 23.7538 290.225 24.9368 290.712C26.1198 291.176 27.6623 291.686 29.5644 292.243C31.6288 292.846 33.3685 293.484 34.7835 294.157C36.1984 294.806 37.3466 295.537 38.2281 296.349C39.1095 297.16 39.7358 298.077 40.107 299.097C40.5013 300.118 40.6985 301.278 40.6985 302.577Z" fill="#DBFC4C"/>
</svg>
